# Blender v2.78 (sub 0) OBJ File: ''
# www.blender.org
mtllib circle.mtl
o Circle
v -1.000000 0.000000 0.000000
v -0.980785 0.195090 0.000000
v -0.923880 0.382683 0.000000
v -0.831470 0.555570 0.000000
v -0.707107 0.707107 0.000000
v -0.555570 0.831470 0.000000
v -0.382683 0.923880 0.000000
v -0.195090 0.980785 0.000000
v -0.000000 1.000000 0.000000
v 0.195090 0.980785 0.000000
v 0.382683 0.923880 0.000000
v 0.555570 0.831470 0.000000
v 0.707107 0.707107 0.000000
v 0.831470 0.555570 0.000000
v 0.923880 0.382683 0.000000
v 0.980785 0.195090 0.000000
v 1.000000 -0.000000 0.000000
v 0.980785 -0.195091 0.000000
v 0.923879 -0.382684 0.000000
v 0.831469 -0.555571 0.000000
v 0.707106 -0.707107 0.000000
v 0.555570 -0.831470 0.000000
v 0.382683 -0.923880 0.000000
v 0.195089 -0.980785 0.000000
v -0.000001 -1.000000 0.000000
v -0.195091 -0.980785 0.000000
v -0.382684 -0.923879 0.000000
v -0.555571 -0.831469 0.000000
v -0.707108 -0.707106 0.000000
v -0.831470 -0.555569 0.000000
v -0.923880 -0.382682 0.000000
v -0.980786 -0.195089 0.000000
vt 0.0000 0.0000
vt 0.0000 0.0000
vt 0.0000 0.0000
vt 0.0000 0.0000
vt 0.0000 0.0000
vt 0.0000 0.0000
vt 0.0000 0.0000
vt 0.0000 0.0000
vt 0.0000 0.0000
vt 0.0000 0.0000
vt 0.0000 0.0000
vt 0.0000 0.0000
vt 0.0000 0.0000
vt 0.0000 0.0000
vt 0.0000 0.0000
vt 0.0000 0.0000
vt 0.0000 0.0000
vt 0.0000 0.0000
vt 0.0000 0.0000
vt 0.0000 0.0000
vt 0.0000 0.0000
vt 0.0000 0.0000
vt 0.0000 0.0000
vt 0.0000 0.0000
vt 0.0000 0.0000
vt 0.0000 0.0000
vt 0.0000 0.0000
vt 0.0000 0.0000
vt 0.0000 0.0000
vt 0.0000 0.0000
vt 0.0000 0.0000
vt 0.0000 0.0000
vn 0.0000 0.0000 1.0000
usemtl None
s off
f 2/1/1 1/2/1 32/3/1
f 2/1/1 32/3/1 31/4/1
f 3/5/1 2/1/1 31/4/1
f 3/5/1 31/4/1 30/6/1
f 4/7/1 3/5/1 30/6/1
f 4/7/1 30/6/1 29/8/1
f 5/9/1 4/7/1 29/8/1
f 5/9/1 29/8/1 28/10/1
f 6/11/1 5/9/1 28/10/1
f 6/11/1 28/10/1 27/12/1
f 7/13/1 6/11/1 27/12/1
f 7/13/1 27/12/1 26/14/1
f 8/15/1 7/13/1 26/14/1
f 8/15/1 26/14/1 25/16/1
f 9/17/1 8/15/1 25/16/1
f 9/17/1 25/16/1 24/18/1
f 10/19/1 9/17/1 24/18/1
f 10/19/1 24/18/1 23/20/1
f 11/21/1 10/19/1 23/20/1
f 11/21/1 23/20/1 22/22/1
f 12/23/1 11/21/1 22/22/1
f 12/23/1 22/22/1 21/24/1
f 13/25/1 12/23/1 21/24/1
f 13/25/1 21/24/1 20/26/1
f 14/27/1 13/25/1 20/26/1
f 14/27/1 20/26/1 19/28/1
f 15/29/1 14/27/1 19/28/1
f 15/29/1 19/28/1 18/30/1
f 16/31/1 15/29/1 18/30/1
f 16/31/1 18/30/1 17/32/1
